<svg xmlns="http://www.w3.org/2000/svg" viewBox="0 12.300000190734863 351.6499938964844 39.20000076293945" data-asc="1.02"><g fill="#109b96"><g fill="#109b96" transform="translate(0, 0)"><path d="M0 51L0 14.50L3.95 14.50L3.95 30.35L9.95 30.35L18.05 14.50L22.40 14.50L13.45 32L22.90 51L18.30 51L9.85 33.85L3.95 33.85L3.95 51L0 51ZM30.90 51L30.90 23.50L34.80 23.50L34.80 28.60L35.75 28.60L34.35 31.75Q34.40 27.55 36.40 25.27Q38.40 23 42.15 23Q46.50 23 49.08 25.72Q51.65 28.45 51.65 33.05L51.65 34.70L47.60 34.70L47.60 33.35Q47.60 30 45.95 28.17Q44.30 26.35 41.25 26.35Q38.30 26.35 36.60 28.20Q34.90 30.05 34.90 33.35L34.90 51L30.90 51ZM59.55 51L59.55 47.40L69.35 47.40L69.35 27.10L60.80 27.10L60.80 23.50L73.35 23.50L73.35 47.40L82.65 47.40L82.65 51L59.55 51M70.90 18.45Q69.35 18.45 68.42 17.65Q67.50 16.85 67.50 15.45Q67.50 14 68.42 13.15Q69.35 12.30 70.90 12.30Q72.45 12.30 73.38 13.15Q74.30 14 74.30 15.45Q74.30 16.80 73.38 17.63Q72.45 18.45 70.90 18.45ZM99.15 51.45Q96.45 51.45 94.40 50.55Q92.35 49.65 91.15 48.02Q89.95 46.40 89.70 44.25L93.65 44.25Q94 45.90 95.43 46.90Q96.85 47.90 99.15 47.90L101.60 47.90Q104.25 47.90 105.63 46.73Q107 45.55 107 43.60Q107 41.75 105.80 40.60Q104.60 39.45 102.35 39.10L98.20 38.45Q94.30 37.80 92.33 35.95Q90.35 34.10 90.35 30.75Q90.35 27.10 92.73 25.07Q95.10 23.05 99.60 23.05L101.55 23.05Q105.45 23.05 107.83 24.90Q110.20 26.75 110.70 29.90L106.70 29.90Q106.40 28.40 105.08 27.50Q103.75 26.60 101.55 26.60L99.60 26.60Q96.95 26.60 95.65 27.67Q94.35 28.75 94.35 30.75Q94.35 32.55 95.45 33.47Q96.55 34.40 98.80 34.75L102.90 35.40Q107 36.05 109 37.98Q111 39.90 111 43.35Q111 47.10 108.60 49.27Q106.20 51.45 101.60 51.45L99.15 51.45ZM120 51L120 14.50L123.95 14.50L123.95 23.10L123.95 28.40L124.95 28.40L123.85 30Q123.85 26.70 125.88 24.85Q127.90 23 131.40 23Q135.50 23 137.95 25.57Q140.40 28.15 140.40 32.55L140.40 51L136.45 51L136.45 33Q136.45 29.85 134.80 28.10Q133.15 26.35 130.30 26.35Q127.35 26.35 125.65 28.20Q123.95 30.05 123.95 33.35L123.95 51L120 51ZM188.20 51L188.20 18.10L177.95 18.10L177.95 14.45L202.35 14.45L202.35 18.10L192.15 18.10L192.15 51L188.20 51ZM210 51L210 14.50L213.95 14.50L213.95 23.10L213.95 28.40L214.95 28.40L213.85 30Q213.85 26.70 215.88 24.85Q217.90 23 221.40 23Q225.50 23 227.95 25.57Q230.40 28.15 230.40 32.55L230.40 51L226.45 51L226.45 33Q226.45 29.85 224.80 28.10Q223.15 26.35 220.30 26.35Q217.35 26.35 215.65 28.20Q213.95 30.05 213.95 33.35L213.95 51L210 51ZM248 51.50Q243.65 51.50 241.15 49.27Q238.65 47.05 238.65 43.25Q238.65 39.50 241.10 37.33Q243.55 35.15 247.70 35.15L256.45 35.15L256.45 32.25Q256.45 29.50 254.85 28Q253.25 26.50 250.30 26.50Q247.70 26.50 245.97 27.65Q244.25 28.80 244 30.75L240 30.75Q240.50 27.20 243.33 25.10Q246.15 23 250.40 23Q255 23 257.70 25.47Q260.40 27.95 260.40 32.15L260.40 51L256.50 51L256.50 45.65L255.85 45.65L256.60 44.85Q256.60 47.90 254.25 49.70Q251.90 51.50 248 51.50M248.95 48.30Q252.25 48.30 254.35 46.65Q256.45 45 256.45 42.35L256.45 38.20L247.75 38.20Q245.40 38.20 244 39.50Q242.60 40.80 242.60 43.05Q242.60 45.45 244.30 46.88Q246 48.30 248.95 48.30ZM270.15 51L270.15 14.50L274.10 14.50L274.10 35.05L279.75 35.05L287.90 23.50L292.50 23.50L283.25 36.60L292.65 51L288 51L279.80 38.50L274.10 38.50L274.10 51L270.15 51ZM310.10 51.50Q305.45 51.50 302.67 48.70Q299.90 45.90 299.90 41.10L299.90 23.50L303.85 23.50L303.85 41.10Q303.85 44.35 305.52 46.17Q307.20 48 310.10 48Q313.05 48 314.75 46.17Q316.45 44.35 316.45 41.10L316.45 23.50L320.40 23.50L320.40 41.10Q320.40 45.90 317.60 48.70Q314.80 51.50 310.10 51.50ZM330.90 51L330.90 23.50L334.80 23.50L334.80 28.60L335.75 28.60L334.35 31.75Q334.40 27.55 336.40 25.27Q338.40 23 342.15 23Q346.50 23 349.07 25.72Q351.65 28.45 351.65 33.05L351.65 34.70L347.60 34.70L347.60 33.35Q347.60 30 345.95 28.17Q344.30 26.35 341.25 26.35Q338.30 26.35 336.60 28.20Q334.90 30.05 334.90 33.35L334.90 51L330.90 51Z"/></g></g></svg>